<mxfile host="app.diagrams.net" modified="2024-03-15T00:56:42.013Z" agent="Mozilla/5.0 (Macintosh; Intel Mac OS X 10_15_7) AppleWebKit/537.36 (KHTML, like Gecko) Chrome/122.0.0.0 Safari/537.36" version="24.0.6" etag="E5hpxFAagGI8pL8FKvlu" type="github">
  <diagram name="Page-1" id="CdfqmPEf9ABopVnFKn6d">
    <mxGraphModel>
      <root>
        <mxCell id="0" />
        <mxCell id="1" parent="0" />
      </root>
    </mxGraphModel>
  </diagram>
</mxfile>
